<?xml version="1.0" encoding="utf-8" standalone="no"?>
<!DOCTYPE svg PUBLIC "-//W3C//DTD SVG 1.1//EN"
  "http://www.w3.org/Graphics/SVG/1.1/DTD/svg11.dtd">
<svg xmlns:xlink="http://www.w3.org/1999/xlink" width="424.226538pt" height="207.034375pt" viewBox="0 0 424.226538 207.034375" xmlns="http://www.w3.org/2000/svg" version="1.1">
 <metadata>
  <rdf:RDF xmlns:dc="http://purl.org/dc/elements/1.1/" xmlns:cc="http://creativecommons.org/ns#" xmlns:rdf="http://www.w3.org/1999/02/22-rdf-syntax-ns#">
   <cc:Work>
    <dc:type rdf:resource="http://purl.org/dc/dcmitype/StillImage"/>
    <dc:date>2024-04-11T11:53:12.064837</dc:date>
    <dc:format>image/svg+xml</dc:format>
    <dc:creator>
     <cc:Agent>
      <dc:title>Matplotlib v3.8.3, https://matplotlib.org/</dc:title>
     </cc:Agent>
    </dc:creator>
   </cc:Work>
  </rdf:RDF>
 </metadata>
 <defs>
  <style type="text/css">*{stroke-linejoin: round; stroke-linecap: butt}</style>
 </defs>
 <g id="figure_1">
  <g id="patch_1">
   <path d="M 0 207.034375 
L 424.226538 207.034375 
L 424.226538 0 
L 0 0 
z
" style="fill: #ffffff"/>
  </g>
  <g id="axes_1">
   <g id="patch_2">
    <path d="M 43.78125 169.478125 
L 202.508605 169.478125 
L 202.508605 22.318125 
L 43.78125 22.318125 
z
" style="fill: #ffffff"/>
   </g>
   <g id="matplotlib.axis_1">
    <g id="xtick_1">
     <g id="line2d_1">
      <defs>
       <path id="mbd79df46f2" d="M 0 0 
L 0 3.5 
" style="stroke: #000000; stroke-width: 0.8"/>
      </defs>
      <g>
       <use xlink:href="#mbd79df46f2" x="50.99613" y="169.478125" style="stroke: #000000; stroke-width: 0.8"/>
      </g>
     </g>
     <g id="text_1">
      <!-- 0.00 -->
      <g transform="translate(39.863317 184.076563) scale(0.1 -0.1)">
       <defs>
        <path id="DejaVuSans-30" d="M 2034 4250 
Q 1547 4250 1301 3770 
Q 1056 3291 1056 2328 
Q 1056 1369 1301 889 
Q 1547 409 2034 409 
Q 2525 409 2770 889 
Q 3016 1369 3016 2328 
Q 3016 3291 2770 3770 
Q 2525 4250 2034 4250 
z
M 2034 4750 
Q 2819 4750 3233 4129 
Q 3647 3509 3647 2328 
Q 3647 1150 3233 529 
Q 2819 -91 2034 -91 
Q 1250 -91 836 529 
Q 422 1150 422 2328 
Q 422 3509 836 4129 
Q 1250 4750 2034 4750 
z
" transform="scale(0.015625)"/>
        <path id="DejaVuSans-2e" d="M 684 794 
L 1344 794 
L 1344 0 
L 684 0 
L 684 794 
z
" transform="scale(0.015625)"/>
       </defs>
       <use xlink:href="#DejaVuSans-30"/>
       <use xlink:href="#DejaVuSans-2e" x="63.623047"/>
       <use xlink:href="#DejaVuSans-30" x="95.410156"/>
       <use xlink:href="#DejaVuSans-30" x="159.033203"/>
      </g>
     </g>
    </g>
    <g id="xtick_2">
     <g id="line2d_2">
      <g>
       <use xlink:href="#mbd79df46f2" x="87.070529" y="169.478125" style="stroke: #000000; stroke-width: 0.8"/>
      </g>
     </g>
     <g id="text_2">
      <!-- 0.25 -->
      <g transform="translate(75.937716 184.076563) scale(0.1 -0.1)">
       <defs>
        <path id="DejaVuSans-32" d="M 1228 531 
L 3431 531 
L 3431 0 
L 469 0 
L 469 531 
Q 828 903 1448 1529 
Q 2069 2156 2228 2338 
Q 2531 2678 2651 2914 
Q 2772 3150 2772 3378 
Q 2772 3750 2511 3984 
Q 2250 4219 1831 4219 
Q 1534 4219 1204 4116 
Q 875 4013 500 3803 
L 500 4441 
Q 881 4594 1212 4672 
Q 1544 4750 1819 4750 
Q 2544 4750 2975 4387 
Q 3406 4025 3406 3419 
Q 3406 3131 3298 2873 
Q 3191 2616 2906 2266 
Q 2828 2175 2409 1742 
Q 1991 1309 1228 531 
z
" transform="scale(0.015625)"/>
        <path id="DejaVuSans-35" d="M 691 4666 
L 3169 4666 
L 3169 4134 
L 1269 4134 
L 1269 2991 
Q 1406 3038 1543 3061 
Q 1681 3084 1819 3084 
Q 2600 3084 3056 2656 
Q 3513 2228 3513 1497 
Q 3513 744 3044 326 
Q 2575 -91 1722 -91 
Q 1428 -91 1123 -41 
Q 819 9 494 109 
L 494 744 
Q 775 591 1075 516 
Q 1375 441 1709 441 
Q 2250 441 2565 725 
Q 2881 1009 2881 1497 
Q 2881 1984 2565 2268 
Q 2250 2553 1709 2553 
Q 1456 2553 1204 2497 
Q 953 2441 691 2322 
L 691 4666 
z
" transform="scale(0.015625)"/>
       </defs>
       <use xlink:href="#DejaVuSans-30"/>
       <use xlink:href="#DejaVuSans-2e" x="63.623047"/>
       <use xlink:href="#DejaVuSans-32" x="95.410156"/>
       <use xlink:href="#DejaVuSans-35" x="159.033203"/>
      </g>
     </g>
    </g>
    <g id="xtick_3">
     <g id="line2d_3">
      <g>
       <use xlink:href="#mbd79df46f2" x="123.144928" y="169.478125" style="stroke: #000000; stroke-width: 0.8"/>
      </g>
     </g>
     <g id="text_3">
      <!-- 0.50 -->
      <g transform="translate(112.012115 184.076563) scale(0.1 -0.1)">
       <use xlink:href="#DejaVuSans-30"/>
       <use xlink:href="#DejaVuSans-2e" x="63.623047"/>
       <use xlink:href="#DejaVuSans-35" x="95.410156"/>
       <use xlink:href="#DejaVuSans-30" x="159.033203"/>
      </g>
     </g>
    </g>
    <g id="xtick_4">
     <g id="line2d_4">
      <g>
       <use xlink:href="#mbd79df46f2" x="159.219327" y="169.478125" style="stroke: #000000; stroke-width: 0.8"/>
      </g>
     </g>
     <g id="text_4">
      <!-- 0.75 -->
      <g transform="translate(148.086514 184.076563) scale(0.1 -0.1)">
       <defs>
        <path id="DejaVuSans-37" d="M 525 4666 
L 3525 4666 
L 3525 4397 
L 1831 0 
L 1172 0 
L 2766 4134 
L 525 4134 
L 525 4666 
z
" transform="scale(0.015625)"/>
       </defs>
       <use xlink:href="#DejaVuSans-30"/>
       <use xlink:href="#DejaVuSans-2e" x="63.623047"/>
       <use xlink:href="#DejaVuSans-37" x="95.410156"/>
       <use xlink:href="#DejaVuSans-35" x="159.033203"/>
      </g>
     </g>
    </g>
    <g id="xtick_5">
     <g id="line2d_5">
      <g>
       <use xlink:href="#mbd79df46f2" x="195.293726" y="169.478125" style="stroke: #000000; stroke-width: 0.8"/>
      </g>
     </g>
     <g id="text_5">
      <!-- 1.00 -->
      <g transform="translate(184.160913 184.076563) scale(0.1 -0.1)">
       <defs>
        <path id="DejaVuSans-31" d="M 794 531 
L 1825 531 
L 1825 4091 
L 703 3866 
L 703 4441 
L 1819 4666 
L 2450 4666 
L 2450 531 
L 3481 531 
L 3481 0 
L 794 0 
L 794 531 
z
" transform="scale(0.015625)"/>
       </defs>
       <use xlink:href="#DejaVuSans-31"/>
       <use xlink:href="#DejaVuSans-2e" x="63.623047"/>
       <use xlink:href="#DejaVuSans-30" x="95.410156"/>
       <use xlink:href="#DejaVuSans-30" x="159.033203"/>
      </g>
     </g>
    </g>
    <g id="text_6">
     <!-- Recall -->
     <g transform="translate(108.22774 197.754688) scale(0.1 -0.1)">
      <defs>
       <path id="DejaVuSans-52" d="M 2841 2188 
Q 3044 2119 3236 1894 
Q 3428 1669 3622 1275 
L 4263 0 
L 3584 0 
L 2988 1197 
Q 2756 1666 2539 1819 
Q 2322 1972 1947 1972 
L 1259 1972 
L 1259 0 
L 628 0 
L 628 4666 
L 2053 4666 
Q 2853 4666 3247 4331 
Q 3641 3997 3641 3322 
Q 3641 2881 3436 2590 
Q 3231 2300 2841 2188 
z
M 1259 4147 
L 1259 2491 
L 2053 2491 
Q 2509 2491 2742 2702 
Q 2975 2913 2975 3322 
Q 2975 3731 2742 3939 
Q 2509 4147 2053 4147 
L 1259 4147 
z
" transform="scale(0.015625)"/>
       <path id="DejaVuSans-65" d="M 3597 1894 
L 3597 1613 
L 953 1613 
Q 991 1019 1311 708 
Q 1631 397 2203 397 
Q 2534 397 2845 478 
Q 3156 559 3463 722 
L 3463 178 
Q 3153 47 2828 -22 
Q 2503 -91 2169 -91 
Q 1331 -91 842 396 
Q 353 884 353 1716 
Q 353 2575 817 3079 
Q 1281 3584 2069 3584 
Q 2775 3584 3186 3129 
Q 3597 2675 3597 1894 
z
M 3022 2063 
Q 3016 2534 2758 2815 
Q 2500 3097 2075 3097 
Q 1594 3097 1305 2825 
Q 1016 2553 972 2059 
L 3022 2063 
z
" transform="scale(0.015625)"/>
       <path id="DejaVuSans-63" d="M 3122 3366 
L 3122 2828 
Q 2878 2963 2633 3030 
Q 2388 3097 2138 3097 
Q 1578 3097 1268 2742 
Q 959 2388 959 1747 
Q 959 1106 1268 751 
Q 1578 397 2138 397 
Q 2388 397 2633 464 
Q 2878 531 3122 666 
L 3122 134 
Q 2881 22 2623 -34 
Q 2366 -91 2075 -91 
Q 1284 -91 818 406 
Q 353 903 353 1747 
Q 353 2603 823 3093 
Q 1294 3584 2113 3584 
Q 2378 3584 2631 3529 
Q 2884 3475 3122 3366 
z
" transform="scale(0.015625)"/>
       <path id="DejaVuSans-61" d="M 2194 1759 
Q 1497 1759 1228 1600 
Q 959 1441 959 1056 
Q 959 750 1161 570 
Q 1363 391 1709 391 
Q 2188 391 2477 730 
Q 2766 1069 2766 1631 
L 2766 1759 
L 2194 1759 
z
M 3341 1997 
L 3341 0 
L 2766 0 
L 2766 531 
Q 2569 213 2275 61 
Q 1981 -91 1556 -91 
Q 1019 -91 701 211 
Q 384 513 384 1019 
Q 384 1609 779 1909 
Q 1175 2209 1959 2209 
L 2766 2209 
L 2766 2266 
Q 2766 2663 2505 2880 
Q 2244 3097 1772 3097 
Q 1472 3097 1187 3025 
Q 903 2953 641 2809 
L 641 3341 
Q 956 3463 1253 3523 
Q 1550 3584 1831 3584 
Q 2591 3584 2966 3190 
Q 3341 2797 3341 1997 
z
" transform="scale(0.015625)"/>
       <path id="DejaVuSans-6c" d="M 603 4863 
L 1178 4863 
L 1178 0 
L 603 0 
L 603 4863 
z
" transform="scale(0.015625)"/>
      </defs>
      <use xlink:href="#DejaVuSans-52"/>
      <use xlink:href="#DejaVuSans-65" x="64.982422"/>
      <use xlink:href="#DejaVuSans-63" x="126.505859"/>
      <use xlink:href="#DejaVuSans-61" x="181.486328"/>
      <use xlink:href="#DejaVuSans-6c" x="242.765625"/>
      <use xlink:href="#DejaVuSans-6c" x="270.548828"/>
     </g>
    </g>
   </g>
   <g id="matplotlib.axis_2">
    <g id="ytick_1">
     <g id="line2d_6">
      <defs>
       <path id="m1c400d5d2d" d="M 0 0 
L -3.5 0 
" style="stroke: #000000; stroke-width: 0.8"/>
      </defs>
      <g>
       <use xlink:href="#m1c400d5d2d" x="43.78125" y="138.536961" style="stroke: #000000; stroke-width: 0.8"/>
      </g>
     </g>
     <g id="text_7">
      <!-- 0.7 -->
      <g transform="translate(20.878125 142.336179) scale(0.1 -0.1)">
       <use xlink:href="#DejaVuSans-30"/>
       <use xlink:href="#DejaVuSans-2e" x="63.623047"/>
       <use xlink:href="#DejaVuSans-37" x="95.410156"/>
      </g>
     </g>
    </g>
    <g id="ytick_2">
     <g id="line2d_7">
      <g>
       <use xlink:href="#m1c400d5d2d" x="43.78125" y="102.027046" style="stroke: #000000; stroke-width: 0.8"/>
      </g>
     </g>
     <g id="text_8">
      <!-- 0.8 -->
      <g transform="translate(20.878125 105.826264) scale(0.1 -0.1)">
       <defs>
        <path id="DejaVuSans-38" d="M 2034 2216 
Q 1584 2216 1326 1975 
Q 1069 1734 1069 1313 
Q 1069 891 1326 650 
Q 1584 409 2034 409 
Q 2484 409 2743 651 
Q 3003 894 3003 1313 
Q 3003 1734 2745 1975 
Q 2488 2216 2034 2216 
z
M 1403 2484 
Q 997 2584 770 2862 
Q 544 3141 544 3541 
Q 544 4100 942 4425 
Q 1341 4750 2034 4750 
Q 2731 4750 3128 4425 
Q 3525 4100 3525 3541 
Q 3525 3141 3298 2862 
Q 3072 2584 2669 2484 
Q 3125 2378 3379 2068 
Q 3634 1759 3634 1313 
Q 3634 634 3220 271 
Q 2806 -91 2034 -91 
Q 1263 -91 848 271 
Q 434 634 434 1313 
Q 434 1759 690 2068 
Q 947 2378 1403 2484 
z
M 1172 3481 
Q 1172 3119 1398 2916 
Q 1625 2713 2034 2713 
Q 2441 2713 2670 2916 
Q 2900 3119 2900 3481 
Q 2900 3844 2670 4047 
Q 2441 4250 2034 4250 
Q 1625 4250 1398 4047 
Q 1172 3844 1172 3481 
z
" transform="scale(0.015625)"/>
       </defs>
       <use xlink:href="#DejaVuSans-30"/>
       <use xlink:href="#DejaVuSans-2e" x="63.623047"/>
       <use xlink:href="#DejaVuSans-38" x="95.410156"/>
      </g>
     </g>
    </g>
    <g id="ytick_3">
     <g id="line2d_8">
      <g>
       <use xlink:href="#m1c400d5d2d" x="43.78125" y="65.517131" style="stroke: #000000; stroke-width: 0.8"/>
      </g>
     </g>
     <g id="text_9">
      <!-- 0.9 -->
      <g transform="translate(20.878125 69.31635) scale(0.1 -0.1)">
       <defs>
        <path id="DejaVuSans-39" d="M 703 97 
L 703 672 
Q 941 559 1184 500 
Q 1428 441 1663 441 
Q 2288 441 2617 861 
Q 2947 1281 2994 2138 
Q 2813 1869 2534 1725 
Q 2256 1581 1919 1581 
Q 1219 1581 811 2004 
Q 403 2428 403 3163 
Q 403 3881 828 4315 
Q 1253 4750 1959 4750 
Q 2769 4750 3195 4129 
Q 3622 3509 3622 2328 
Q 3622 1225 3098 567 
Q 2575 -91 1691 -91 
Q 1453 -91 1209 -44 
Q 966 3 703 97 
z
M 1959 2075 
Q 2384 2075 2632 2365 
Q 2881 2656 2881 3163 
Q 2881 3666 2632 3958 
Q 2384 4250 1959 4250 
Q 1534 4250 1286 3958 
Q 1038 3666 1038 3163 
Q 1038 2656 1286 2365 
Q 1534 2075 1959 2075 
z
" transform="scale(0.015625)"/>
       </defs>
       <use xlink:href="#DejaVuSans-30"/>
       <use xlink:href="#DejaVuSans-2e" x="63.623047"/>
       <use xlink:href="#DejaVuSans-39" x="95.410156"/>
      </g>
     </g>
    </g>
    <g id="ytick_4">
     <g id="line2d_9">
      <g>
       <use xlink:href="#m1c400d5d2d" x="43.78125" y="29.007216" style="stroke: #000000; stroke-width: 0.8"/>
      </g>
     </g>
     <g id="text_10">
      <!-- 1.0 -->
      <g transform="translate(20.878125 32.806435) scale(0.1 -0.1)">
       <use xlink:href="#DejaVuSans-31"/>
       <use xlink:href="#DejaVuSans-2e" x="63.623047"/>
       <use xlink:href="#DejaVuSans-30" x="95.410156"/>
      </g>
     </g>
    </g>
    <g id="text_11">
     <!-- Precision -->
     <g transform="translate(14.798438 118.205156) rotate(-90) scale(0.1 -0.1)">
      <defs>
       <path id="DejaVuSans-50" d="M 1259 4147 
L 1259 2394 
L 2053 2394 
Q 2494 2394 2734 2622 
Q 2975 2850 2975 3272 
Q 2975 3691 2734 3919 
Q 2494 4147 2053 4147 
L 1259 4147 
z
M 628 4666 
L 2053 4666 
Q 2838 4666 3239 4311 
Q 3641 3956 3641 3272 
Q 3641 2581 3239 2228 
Q 2838 1875 2053 1875 
L 1259 1875 
L 1259 0 
L 628 0 
L 628 4666 
z
" transform="scale(0.015625)"/>
       <path id="DejaVuSans-72" d="M 2631 2963 
Q 2534 3019 2420 3045 
Q 2306 3072 2169 3072 
Q 1681 3072 1420 2755 
Q 1159 2438 1159 1844 
L 1159 0 
L 581 0 
L 581 3500 
L 1159 3500 
L 1159 2956 
Q 1341 3275 1631 3429 
Q 1922 3584 2338 3584 
Q 2397 3584 2469 3576 
Q 2541 3569 2628 3553 
L 2631 2963 
z
" transform="scale(0.015625)"/>
       <path id="DejaVuSans-69" d="M 603 3500 
L 1178 3500 
L 1178 0 
L 603 0 
L 603 3500 
z
M 603 4863 
L 1178 4863 
L 1178 4134 
L 603 4134 
L 603 4863 
z
" transform="scale(0.015625)"/>
       <path id="DejaVuSans-73" d="M 2834 3397 
L 2834 2853 
Q 2591 2978 2328 3040 
Q 2066 3103 1784 3103 
Q 1356 3103 1142 2972 
Q 928 2841 928 2578 
Q 928 2378 1081 2264 
Q 1234 2150 1697 2047 
L 1894 2003 
Q 2506 1872 2764 1633 
Q 3022 1394 3022 966 
Q 3022 478 2636 193 
Q 2250 -91 1575 -91 
Q 1294 -91 989 -36 
Q 684 19 347 128 
L 347 722 
Q 666 556 975 473 
Q 1284 391 1588 391 
Q 1994 391 2212 530 
Q 2431 669 2431 922 
Q 2431 1156 2273 1281 
Q 2116 1406 1581 1522 
L 1381 1569 
Q 847 1681 609 1914 
Q 372 2147 372 2553 
Q 372 3047 722 3315 
Q 1072 3584 1716 3584 
Q 2034 3584 2315 3537 
Q 2597 3491 2834 3397 
z
" transform="scale(0.015625)"/>
       <path id="DejaVuSans-6f" d="M 1959 3097 
Q 1497 3097 1228 2736 
Q 959 2375 959 1747 
Q 959 1119 1226 758 
Q 1494 397 1959 397 
Q 2419 397 2687 759 
Q 2956 1122 2956 1747 
Q 2956 2369 2687 2733 
Q 2419 3097 1959 3097 
z
M 1959 3584 
Q 2709 3584 3137 3096 
Q 3566 2609 3566 1747 
Q 3566 888 3137 398 
Q 2709 -91 1959 -91 
Q 1206 -91 779 398 
Q 353 888 353 1747 
Q 353 2609 779 3096 
Q 1206 3584 1959 3584 
z
" transform="scale(0.015625)"/>
       <path id="DejaVuSans-6e" d="M 3513 2113 
L 3513 0 
L 2938 0 
L 2938 2094 
Q 2938 2591 2744 2837 
Q 2550 3084 2163 3084 
Q 1697 3084 1428 2787 
Q 1159 2491 1159 1978 
L 1159 0 
L 581 0 
L 581 3500 
L 1159 3500 
L 1159 2956 
Q 1366 3272 1645 3428 
Q 1925 3584 2291 3584 
Q 2894 3584 3203 3211 
Q 3513 2838 3513 2113 
z
" transform="scale(0.015625)"/>
      </defs>
      <use xlink:href="#DejaVuSans-50"/>
      <use xlink:href="#DejaVuSans-72" x="58.552734"/>
      <use xlink:href="#DejaVuSans-65" x="97.416016"/>
      <use xlink:href="#DejaVuSans-63" x="158.939453"/>
      <use xlink:href="#DejaVuSans-69" x="213.919922"/>
      <use xlink:href="#DejaVuSans-73" x="241.703125"/>
      <use xlink:href="#DejaVuSans-69" x="293.802734"/>
      <use xlink:href="#DejaVuSans-6f" x="321.585938"/>
      <use xlink:href="#DejaVuSans-6e" x="382.767578"/>
     </g>
    </g>
   </g>
   <g id="line2d_10">
    <path d="M 195.293726 162.789034 
L 195.293726 161.740451 
L 195.088173 161.860899 
L 195.088173 160.802351 
L 194.882621 160.922602 
L 194.882621 160.496306 
L 194.677069 160.402789 
L 194.677069 159.327795 
L 194.471517 159.447796 
L 194.471517 159.014847 
L 194.265965 159.13489 
L 194.265965 157.606266 
L 194.060413 157.725893 
L 194.060413 155.506358 
L 193.854861 155.625248 
L 193.854861 154.045903 
L 192.8271 154.640193 
L 192.8271 152.109811 
L 192.415996 152.346774 
L 192.415996 149.52193 
L 192.004891 149.757081 
L 192.004891 149.039813 
L 191.799339 149.157377 
L 191.799339 148.917231 
L 191.593787 149.034905 
L 191.593787 147.095665 
L 191.388235 147.212584 
L 191.388235 146.477051 
L 190.771579 146.828057 
L 190.771579 146.334487 
L 190.566027 146.451697 
L 190.566027 145.208451 
L 190.154922 145.442256 
L 190.154922 145.191839 
L 189.743818 145.426319 
L 189.743818 143.657254 
L 189.538266 143.773886 
L 189.538266 143.518965 
L 189.332714 143.635695 
L 189.332714 143.380113 
L 189.127162 143.496939 
L 189.127162 142.983921 
L 188.716057 143.217719 
L 188.716057 140.354882 
L 188.510505 140.470508 
L 188.510505 139.412589 
L 188.099401 139.643322 
L 188.099401 138.843123 
L 187.893849 138.958376 
L 187.893849 138.152646 
L 187.688297 138.267657 
L 187.688297 133.321259 
L 187.482745 133.433424 
L 187.482745 132.871629 
L 187.277192 132.983673 
L 187.277192 130.71057 
L 187.07164 130.821358 
L 187.07164 130.534242 
L 186.866088 130.645079 
L 186.866088 125.064517 
L 186.660536 125.171724 
L 186.660536 124.268248 
L 186.454984 124.375043 
L 186.454984 122.241575 
L 186.04388 122.452751 
L 186.04388 119.969061 
L 185.838328 120.073136 
L 185.838328 119.129279 
L 185.632775 119.232868 
L 185.632775 118.599519 
L 184.605015 119.118593 
L 184.605015 117.838092 
L 184.399463 117.941624 
L 184.399463 116.972625 
L 184.193911 117.075629 
L 184.193911 116.750857 
L 183.988358 116.853842 
L 183.988358 116.528046 
L 183.577254 116.73422 
L 183.577254 116.40713 
L 183.371702 116.510318 
L 183.371702 114.861885 
L 183.16615 114.963972 
L 183.16615 114.631659 
L 182.755046 114.836013 
L 182.755046 112.144251 
L 182.549493 112.244537 
L 182.549493 111.562888 
L 182.138389 111.763023 
L 182.138389 111.420373 
L 181.932837 111.520511 
L 181.932837 111.176732 
L 181.316181 111.47772 
L 181.316181 109.741671 
L 180.699524 110.040319 
L 180.699524 109.68962 
L 180.28842 109.889329 
L 180.28842 109.184076 
L 180.082868 109.283675 
L 180.082868 108.218253 
L 179.877316 108.317143 
L 179.877316 107.959907 
L 179.466212 108.157783 
L 179.466212 107.799002 
L 179.260659 107.897987 
L 179.260659 107.177059 
L 178.849555 107.374458 
L 178.849555 106.284222 
L 178.644003 106.382289 
L 178.644003 105.650167 
L 178.438451 105.747801 
L 178.438451 105.379997 
L 178.232899 105.477536 
L 178.232899 104.367425 
L 177.821794 104.561153 
L 177.821794 103.440333 
L 177.616242 103.5365 
L 177.616242 102.783728 
L 177.41069 102.879417 
L 177.41069 102.5012 
L 177.205138 102.596771 
L 177.205138 101.836642 
L 176.794034 102.027046 
L 176.794034 100.105471 
L 176.177377 100.387234 
L 176.177377 99.218591 
L 175.971825 99.311833 
L 175.971825 98.919819 
L 175.766273 99.012912 
L 175.766273 98.619454 
L 175.355169 98.805583 
L 175.355169 98.013892 
L 175.149617 98.106518 
L 175.149617 95.298931 
L 174.944065 95.388879 
L 174.944065 93.348459 
L 174.121856 93.701983 
L 174.121856 93.288772 
L 173.916304 93.377314 
L 173.916304 92.546571 
L 173.094095 92.899567 
L 173.094095 92.480642 
L 172.682991 92.657695 
L 172.682991 92.236677 
L 172.477439 92.32511 
L 172.477439 91.478599 
L 172.066335 91.654327 
L 172.066335 91.228339 
L 171.860783 91.316097 
L 171.860783 90.888428 
L 171.655231 90.975954 
L 171.655231 90.11601 
L 171.449678 90.202812 
L 171.449678 89.33699 
L 171.244126 89.423052 
L 171.244126 88.551283 
L 170.62747 88.807939 
L 170.62747 88.36866 
L 170.216366 88.539978 
L 170.216366 87.211428 
L 169.805261 87.380626 
L 169.805261 86.934155 
L 169.599709 87.018597 
L 169.599709 85.669749 
L 169.188605 85.836158 
L 169.188605 84.472131 
L 166.927532 85.386845 
L 166.927532 84.458365 
L 166.721979 84.541876 
L 166.721979 84.074961 
L 166.516427 84.158145 
L 166.516427 83.689237 
L 165.899771 83.938547 
L 165.899771 83.46645 
L 165.488667 83.632737 
L 165.488667 83.158007 
L 165.077562 83.324114 
L 165.077562 82.846722 
L 164.87201 82.929552 
L 164.87201 82.450081 
L 163.84425 82.86501 
L 163.84425 82.380964 
L 163.433145 82.547497 
L 163.433145 81.572352 
L 162.199833 82.070599 
L 162.199833 81.576872 
L 161.788728 81.74376 
L 161.788728 80.748974 
L 161.377624 80.914283 
L 161.377624 80.413176 
L 160.760968 80.661115 
L 160.760968 80.156372 
L 160.349863 80.321636 
L 160.349863 79.304505 
L 159.938759 79.468074 
L 159.938759 78.955634 
L 159.322103 79.20088 
L 159.322103 78.166707 
L 156.855477 79.154838 
L 156.855477 78.626396 
L 155.827716 79.046186 
L 155.827716 77.976372 
L 154.183299 78.650646 
L 154.183299 78.106757 
L 153.977747 78.191557 
L 153.977747 77.644992 
L 153.772195 77.729286 
L 153.772195 77.18002 
L 153.155539 77.432234 
L 153.155539 76.878608 
L 151.716674 77.471705 
L 151.716674 76.910296 
L 150.688913 77.338767 
L 150.688913 75.055757 
L 150.072257 75.306021 
L 150.072257 74.727436 
L 148.633392 75.315748 
L 148.633392 74.728656 
L 147.194527 75.325765 
L 147.194527 74.13183 
L 146.577871 74.386771 
L 146.577871 73.783527 
L 145.961214 74.03842 
L 145.961214 73.429926 
L 145.139006 73.77033 
L 145.139006 73.155482 
L 144.522349 73.411166 
L 144.522349 72.790866 
L 144.316797 72.875718 
L 144.316797 72.251969 
L 143.494589 72.59048 
L 143.494589 71.960057 
L 142.261276 72.4714 
L 142.261276 71.189986 
L 142.055724 71.274183 
L 142.055724 70.628519 
L 141.850172 70.711928 
L 141.850172 70.062542 
L 141.644619 70.145148 
L 141.644619 68.836214 
L 140.000202 69.490489 
L 140.000202 68.822555 
L 139.177994 69.152973 
L 139.177994 68.477394 
L 135.478056 70.011872 
L 135.478056 68.605822 
L 135.066951 68.778365 
L 135.066951 68.068042 
L 133.628086 68.674307 
L 133.628086 67.951125 
L 132.600326 68.388697 
L 132.600326 67.655099 
L 130.544804 68.545603 
L 130.544804 67.793731 
L 129.722596 68.155376 
L 129.722596 67.393809 
L 128.694835 67.847551 
L 128.694835 67.074426 
L 127.25597 67.716523 
L 127.25597 66.928142 
L 127.050418 67.01996 
L 127.050418 66.226061 
L 126.022658 66.683295 
L 126.022658 65.066391 
L 121.911615 66.939595 
L 121.911615 66.087598 
L 118.006124 68.01781 
L 118.006124 67.121962 
L 114.511738 68.989255 
L 114.511738 68.04961 
L 110.606248 70.318129 
L 110.400696 70.444849 
L 110.400696 69.448968 
L 110.195143 69.573788 
L 110.195143 68.569043 
L 108.139622 69.832999 
L 108.139622 68.793662 
L 107.93407 68.921592 
L 107.93407 67.872609 
L 107.111861 68.380654 
L 107.111861 67.3127 
L 106.700757 67.565542 
L 106.700757 66.484281 
L 105.261892 67.373567 
L 105.261892 66.262231 
L 103.617475 67.304329 
L 103.617475 66.157656 
L 103.411923 66.288467 
L 103.411923 63.963517 
L 103.206371 64.087917 
L 103.206371 62.90928 
L 101.767506 63.778563 
L 101.767506 61.34072 
L 101.561954 61.460474 
L 101.561954 58.978042 
L 98.889776 60.505966 
L 98.889776 59.192579 
L 96.834255 60.429684 
L 96.834255 59.056529 
L 94.778734 60.346199 
L 94.778734 57.4565 
L 93.339869 58.34554 
L 93.339869 56.839886 
L 91.901004 57.741871 
L 91.901004 56.177385 
L 90.873243 56.824294 
L 90.873243 55.210504 
L 89.63993 55.984986 
L 89.63993 54.311117 
L 89.434378 54.437007 
L 89.434378 52.738661 
L 87.995513 53.599387 
L 87.995513 51.825913 
L 86.967753 52.436038 
L 86.967753 50.599101 
L 85.323336 51.569523 
L 85.323336 49.634286 
L 82.651158 51.269359 
L 80.595637 52.714953 
L 80.595637 50.483636 
L 80.184532 50.768092 
L 80.184532 46.159525 
L 77.717907 47.661917 
L 75.456833 49.290502 
L 75.251281 49.452768 
L 75.251281 46.673304 
L 73.19576 48.222961 
L 71.345791 49.870024 
L 69.495822 51.825913 
L 68.262509 53.347159 
L 68.262509 49.518404 
L 66.618092 51.5442 
L 66.618092 47.262173 
L 65.179227 49.012649 
L 65.179227 39.291699 
L 63.53481 40.597665 
L 62.095945 42.046471 
L 60.862632 43.611182 
L 59.834871 45.233845 
L 58.807111 47.262173 
L 57.77935 49.870024 
L 57.368246 51.134437 
L 57.368246 40.416564 
L 56.546037 42.046471 
L 55.723829 44.21968 
L 55.107172 46.39289 
L 54.490516 49.290502 
L 54.490516 29.007216 
L 50.99613 29.007216 
L 50.99613 29.007216 
" clip-path="url(#p757efcc464)" style="fill: none; stroke: #1f77b4; stroke-width: 1.5; stroke-linecap: square"/>
   </g>
   <g id="patch_3">
    <path d="M 43.78125 169.478125 
L 43.78125 22.318125 
" style="fill: none; stroke: #000000; stroke-width: 0.8; stroke-linejoin: miter; stroke-linecap: square"/>
   </g>
   <g id="patch_4">
    <path d="M 202.508605 169.478125 
L 202.508605 22.318125 
" style="fill: none; stroke: #000000; stroke-width: 0.8; stroke-linejoin: miter; stroke-linecap: square"/>
   </g>
   <g id="patch_5">
    <path d="M 43.78125 169.478125 
L 202.508605 169.478125 
" style="fill: none; stroke: #000000; stroke-width: 0.8; stroke-linejoin: miter; stroke-linecap: square"/>
   </g>
   <g id="patch_6">
    <path d="M 43.78125 22.318125 
L 202.508605 22.318125 
" style="fill: none; stroke: #000000; stroke-width: 0.8; stroke-linejoin: miter; stroke-linecap: square"/>
   </g>
   <g id="text_12">
    <!-- Precision-Recall Curve -->
    <g transform="translate(56.702428 16.318125) scale(0.12 -0.12)">
     <defs>
      <path id="DejaVuSans-2d" d="M 313 2009 
L 1997 2009 
L 1997 1497 
L 313 1497 
L 313 2009 
z
" transform="scale(0.015625)"/>
      <path id="DejaVuSans-20" transform="scale(0.015625)"/>
      <path id="DejaVuSans-43" d="M 4122 4306 
L 4122 3641 
Q 3803 3938 3442 4084 
Q 3081 4231 2675 4231 
Q 1875 4231 1450 3742 
Q 1025 3253 1025 2328 
Q 1025 1406 1450 917 
Q 1875 428 2675 428 
Q 3081 428 3442 575 
Q 3803 722 4122 1019 
L 4122 359 
Q 3791 134 3420 21 
Q 3050 -91 2638 -91 
Q 1578 -91 968 557 
Q 359 1206 359 2328 
Q 359 3453 968 4101 
Q 1578 4750 2638 4750 
Q 3056 4750 3426 4639 
Q 3797 4528 4122 4306 
z
" transform="scale(0.015625)"/>
      <path id="DejaVuSans-75" d="M 544 1381 
L 544 3500 
L 1119 3500 
L 1119 1403 
Q 1119 906 1312 657 
Q 1506 409 1894 409 
Q 2359 409 2629 706 
Q 2900 1003 2900 1516 
L 2900 3500 
L 3475 3500 
L 3475 0 
L 2900 0 
L 2900 538 
Q 2691 219 2414 64 
Q 2138 -91 1772 -91 
Q 1169 -91 856 284 
Q 544 659 544 1381 
z
M 1991 3584 
L 1991 3584 
z
" transform="scale(0.015625)"/>
      <path id="DejaVuSans-76" d="M 191 3500 
L 800 3500 
L 1894 563 
L 2988 3500 
L 3597 3500 
L 2284 0 
L 1503 0 
L 191 3500 
z
" transform="scale(0.015625)"/>
     </defs>
     <use xlink:href="#DejaVuSans-50"/>
     <use xlink:href="#DejaVuSans-72" x="58.552734"/>
     <use xlink:href="#DejaVuSans-65" x="97.416016"/>
     <use xlink:href="#DejaVuSans-63" x="158.939453"/>
     <use xlink:href="#DejaVuSans-69" x="213.919922"/>
     <use xlink:href="#DejaVuSans-73" x="241.703125"/>
     <use xlink:href="#DejaVuSans-69" x="293.802734"/>
     <use xlink:href="#DejaVuSans-6f" x="321.585938"/>
     <use xlink:href="#DejaVuSans-6e" x="382.767578"/>
     <use xlink:href="#DejaVuSans-2d" x="446.146484"/>
     <use xlink:href="#DejaVuSans-52" x="482.230469"/>
     <use xlink:href="#DejaVuSans-65" x="547.212891"/>
     <use xlink:href="#DejaVuSans-63" x="608.736328"/>
     <use xlink:href="#DejaVuSans-61" x="663.716797"/>
     <use xlink:href="#DejaVuSans-6c" x="724.996094"/>
     <use xlink:href="#DejaVuSans-6c" x="752.779297"/>
     <use xlink:href="#DejaVuSans-20" x="780.5625"/>
     <use xlink:href="#DejaVuSans-43" x="812.349609"/>
     <use xlink:href="#DejaVuSans-75" x="882.173828"/>
     <use xlink:href="#DejaVuSans-72" x="945.552734"/>
     <use xlink:href="#DejaVuSans-76" x="986.666016"/>
     <use xlink:href="#DejaVuSans-65" x="1045.845703"/>
    </g>
   </g>
   <g id="legend_1">
    <g id="patch_7">
     <path d="M 101.063293 44.99625 
L 195.508605 44.99625 
Q 197.508605 44.99625 197.508605 42.99625 
L 197.508605 29.318125 
Q 197.508605 27.318125 195.508605 27.318125 
L 101.063293 27.318125 
Q 99.063293 27.318125 99.063293 29.318125 
L 99.063293 42.99625 
Q 99.063293 44.99625 101.063293 44.99625 
z
" style="fill: #ffffff; opacity: 0.8; stroke: #cccccc; stroke-linejoin: miter"/>
    </g>
    <g id="line2d_11">
     <path d="M 103.063293 35.416562 
L 113.063293 35.416562 
L 123.063293 35.416562 
" style="fill: none; stroke: #1f77b4; stroke-width: 1.5; stroke-linecap: square"/>
    </g>
    <g id="text_13">
     <!-- auPR = 0.88 -->
     <g transform="translate(131.063293 38.916562) scale(0.1 -0.1)">
      <defs>
       <path id="DejaVuSans-3d" d="M 678 2906 
L 4684 2906 
L 4684 2381 
L 678 2381 
L 678 2906 
z
M 678 1631 
L 4684 1631 
L 4684 1100 
L 678 1100 
L 678 1631 
z
" transform="scale(0.015625)"/>
      </defs>
      <use xlink:href="#DejaVuSans-61"/>
      <use xlink:href="#DejaVuSans-75" x="61.279297"/>
      <use xlink:href="#DejaVuSans-50" x="124.658203"/>
      <use xlink:href="#DejaVuSans-52" x="184.960938"/>
      <use xlink:href="#DejaVuSans-20" x="254.443359"/>
      <use xlink:href="#DejaVuSans-3d" x="286.230469"/>
      <use xlink:href="#DejaVuSans-20" x="370.019531"/>
      <use xlink:href="#DejaVuSans-30" x="401.806641"/>
      <use xlink:href="#DejaVuSans-2e" x="465.429688"/>
      <use xlink:href="#DejaVuSans-38" x="497.216797"/>
      <use xlink:href="#DejaVuSans-38" x="560.839844"/>
     </g>
    </g>
   </g>
  </g>
  <g id="axes_2">
   <g id="patch_8">
    <path d="M 254.38125 169.478125 
L 413.108605 169.478125 
L 413.108605 22.318125 
L 254.38125 22.318125 
z
" style="fill: #ffffff"/>
   </g>
   <g id="matplotlib.axis_3">
    <g id="xtick_6">
     <g id="line2d_12">
      <g>
       <use xlink:href="#mbd79df46f2" x="261.59613" y="169.478125" style="stroke: #000000; stroke-width: 0.8"/>
      </g>
     </g>
     <g id="text_14">
      <!-- 0.00 -->
      <g transform="translate(250.463317 184.076563) scale(0.1 -0.1)">
       <use xlink:href="#DejaVuSans-30"/>
       <use xlink:href="#DejaVuSans-2e" x="63.623047"/>
       <use xlink:href="#DejaVuSans-30" x="95.410156"/>
       <use xlink:href="#DejaVuSans-30" x="159.033203"/>
      </g>
     </g>
    </g>
    <g id="xtick_7">
     <g id="line2d_13">
      <g>
       <use xlink:href="#mbd79df46f2" x="297.670529" y="169.478125" style="stroke: #000000; stroke-width: 0.8"/>
      </g>
     </g>
     <g id="text_15">
      <!-- 0.25 -->
      <g transform="translate(286.537716 184.076563) scale(0.1 -0.1)">
       <use xlink:href="#DejaVuSans-30"/>
       <use xlink:href="#DejaVuSans-2e" x="63.623047"/>
       <use xlink:href="#DejaVuSans-32" x="95.410156"/>
       <use xlink:href="#DejaVuSans-35" x="159.033203"/>
      </g>
     </g>
    </g>
    <g id="xtick_8">
     <g id="line2d_14">
      <g>
       <use xlink:href="#mbd79df46f2" x="333.744928" y="169.478125" style="stroke: #000000; stroke-width: 0.8"/>
      </g>
     </g>
     <g id="text_16">
      <!-- 0.50 -->
      <g transform="translate(322.612115 184.076563) scale(0.1 -0.1)">
       <use xlink:href="#DejaVuSans-30"/>
       <use xlink:href="#DejaVuSans-2e" x="63.623047"/>
       <use xlink:href="#DejaVuSans-35" x="95.410156"/>
       <use xlink:href="#DejaVuSans-30" x="159.033203"/>
      </g>
     </g>
    </g>
    <g id="xtick_9">
     <g id="line2d_15">
      <g>
       <use xlink:href="#mbd79df46f2" x="369.819327" y="169.478125" style="stroke: #000000; stroke-width: 0.8"/>
      </g>
     </g>
     <g id="text_17">
      <!-- 0.75 -->
      <g transform="translate(358.686514 184.076563) scale(0.1 -0.1)">
       <use xlink:href="#DejaVuSans-30"/>
       <use xlink:href="#DejaVuSans-2e" x="63.623047"/>
       <use xlink:href="#DejaVuSans-37" x="95.410156"/>
       <use xlink:href="#DejaVuSans-35" x="159.033203"/>
      </g>
     </g>
    </g>
    <g id="xtick_10">
     <g id="line2d_16">
      <g>
       <use xlink:href="#mbd79df46f2" x="405.893726" y="169.478125" style="stroke: #000000; stroke-width: 0.8"/>
      </g>
     </g>
     <g id="text_18">
      <!-- 1.00 -->
      <g transform="translate(394.760913 184.076563) scale(0.1 -0.1)">
       <use xlink:href="#DejaVuSans-31"/>
       <use xlink:href="#DejaVuSans-2e" x="63.623047"/>
       <use xlink:href="#DejaVuSans-30" x="95.410156"/>
       <use xlink:href="#DejaVuSans-30" x="159.033203"/>
      </g>
     </g>
    </g>
    <g id="text_19">
     <!-- False Positive Rate -->
     <g transform="translate(287.278521 197.754688) scale(0.1 -0.1)">
      <defs>
       <path id="DejaVuSans-46" d="M 628 4666 
L 3309 4666 
L 3309 4134 
L 1259 4134 
L 1259 2759 
L 3109 2759 
L 3109 2228 
L 1259 2228 
L 1259 0 
L 628 0 
L 628 4666 
z
" transform="scale(0.015625)"/>
       <path id="DejaVuSans-74" d="M 1172 4494 
L 1172 3500 
L 2356 3500 
L 2356 3053 
L 1172 3053 
L 1172 1153 
Q 1172 725 1289 603 
Q 1406 481 1766 481 
L 2356 481 
L 2356 0 
L 1766 0 
Q 1100 0 847 248 
Q 594 497 594 1153 
L 594 3053 
L 172 3053 
L 172 3500 
L 594 3500 
L 594 4494 
L 1172 4494 
z
" transform="scale(0.015625)"/>
      </defs>
      <use xlink:href="#DejaVuSans-46"/>
      <use xlink:href="#DejaVuSans-61" x="48.394531"/>
      <use xlink:href="#DejaVuSans-6c" x="109.673828"/>
      <use xlink:href="#DejaVuSans-73" x="137.457031"/>
      <use xlink:href="#DejaVuSans-65" x="189.556641"/>
      <use xlink:href="#DejaVuSans-20" x="251.080078"/>
      <use xlink:href="#DejaVuSans-50" x="282.867188"/>
      <use xlink:href="#DejaVuSans-6f" x="339.544922"/>
      <use xlink:href="#DejaVuSans-73" x="400.726562"/>
      <use xlink:href="#DejaVuSans-69" x="452.826172"/>
      <use xlink:href="#DejaVuSans-74" x="480.609375"/>
      <use xlink:href="#DejaVuSans-69" x="519.818359"/>
      <use xlink:href="#DejaVuSans-76" x="547.601562"/>
      <use xlink:href="#DejaVuSans-65" x="606.78125"/>
      <use xlink:href="#DejaVuSans-20" x="668.304688"/>
      <use xlink:href="#DejaVuSans-52" x="700.091797"/>
      <use xlink:href="#DejaVuSans-61" x="767.324219"/>
      <use xlink:href="#DejaVuSans-74" x="828.603516"/>
      <use xlink:href="#DejaVuSans-65" x="867.8125"/>
     </g>
    </g>
   </g>
   <g id="matplotlib.axis_4">
    <g id="ytick_5">
     <g id="line2d_17">
      <g>
       <use xlink:href="#m1c400d5d2d" x="254.38125" y="162.789034" style="stroke: #000000; stroke-width: 0.8"/>
      </g>
     </g>
     <g id="text_20">
      <!-- 0.0 -->
      <g transform="translate(231.478125 166.588253) scale(0.1 -0.1)">
       <use xlink:href="#DejaVuSans-30"/>
       <use xlink:href="#DejaVuSans-2e" x="63.623047"/>
       <use xlink:href="#DejaVuSans-30" x="95.410156"/>
      </g>
     </g>
    </g>
    <g id="ytick_6">
     <g id="line2d_18">
      <g>
       <use xlink:href="#m1c400d5d2d" x="254.38125" y="136.03267" style="stroke: #000000; stroke-width: 0.8"/>
      </g>
     </g>
     <g id="text_21">
      <!-- 0.2 -->
      <g transform="translate(231.478125 139.831889) scale(0.1 -0.1)">
       <use xlink:href="#DejaVuSans-30"/>
       <use xlink:href="#DejaVuSans-2e" x="63.623047"/>
       <use xlink:href="#DejaVuSans-32" x="95.410156"/>
      </g>
     </g>
    </g>
    <g id="ytick_7">
     <g id="line2d_19">
      <g>
       <use xlink:href="#m1c400d5d2d" x="254.38125" y="109.276307" style="stroke: #000000; stroke-width: 0.8"/>
      </g>
     </g>
     <g id="text_22">
      <!-- 0.4 -->
      <g transform="translate(231.478125 113.075526) scale(0.1 -0.1)">
       <defs>
        <path id="DejaVuSans-34" d="M 2419 4116 
L 825 1625 
L 2419 1625 
L 2419 4116 
z
M 2253 4666 
L 3047 4666 
L 3047 1625 
L 3713 1625 
L 3713 1100 
L 3047 1100 
L 3047 0 
L 2419 0 
L 2419 1100 
L 313 1100 
L 313 1709 
L 2253 4666 
z
" transform="scale(0.015625)"/>
       </defs>
       <use xlink:href="#DejaVuSans-30"/>
       <use xlink:href="#DejaVuSans-2e" x="63.623047"/>
       <use xlink:href="#DejaVuSans-34" x="95.410156"/>
      </g>
     </g>
    </g>
    <g id="ytick_8">
     <g id="line2d_20">
      <g>
       <use xlink:href="#m1c400d5d2d" x="254.38125" y="82.519943" style="stroke: #000000; stroke-width: 0.8"/>
      </g>
     </g>
     <g id="text_23">
      <!-- 0.6 -->
      <g transform="translate(231.478125 86.319162) scale(0.1 -0.1)">
       <defs>
        <path id="DejaVuSans-36" d="M 2113 2584 
Q 1688 2584 1439 2293 
Q 1191 2003 1191 1497 
Q 1191 994 1439 701 
Q 1688 409 2113 409 
Q 2538 409 2786 701 
Q 3034 994 3034 1497 
Q 3034 2003 2786 2293 
Q 2538 2584 2113 2584 
z
M 3366 4563 
L 3366 3988 
Q 3128 4100 2886 4159 
Q 2644 4219 2406 4219 
Q 1781 4219 1451 3797 
Q 1122 3375 1075 2522 
Q 1259 2794 1537 2939 
Q 1816 3084 2150 3084 
Q 2853 3084 3261 2657 
Q 3669 2231 3669 1497 
Q 3669 778 3244 343 
Q 2819 -91 2113 -91 
Q 1303 -91 875 529 
Q 447 1150 447 2328 
Q 447 3434 972 4092 
Q 1497 4750 2381 4750 
Q 2619 4750 2861 4703 
Q 3103 4656 3366 4563 
z
" transform="scale(0.015625)"/>
       </defs>
       <use xlink:href="#DejaVuSans-30"/>
       <use xlink:href="#DejaVuSans-2e" x="63.623047"/>
       <use xlink:href="#DejaVuSans-36" x="95.410156"/>
      </g>
     </g>
    </g>
    <g id="ytick_9">
     <g id="line2d_21">
      <g>
       <use xlink:href="#m1c400d5d2d" x="254.38125" y="55.76358" style="stroke: #000000; stroke-width: 0.8"/>
      </g>
     </g>
     <g id="text_24">
      <!-- 0.8 -->
      <g transform="translate(231.478125 59.562798) scale(0.1 -0.1)">
       <use xlink:href="#DejaVuSans-30"/>
       <use xlink:href="#DejaVuSans-2e" x="63.623047"/>
       <use xlink:href="#DejaVuSans-38" x="95.410156"/>
      </g>
     </g>
    </g>
    <g id="ytick_10">
     <g id="line2d_22">
      <g>
       <use xlink:href="#m1c400d5d2d" x="254.38125" y="29.007216" style="stroke: #000000; stroke-width: 0.8"/>
      </g>
     </g>
     <g id="text_25">
      <!-- 1.0 -->
      <g transform="translate(231.478125 32.806435) scale(0.1 -0.1)">
       <use xlink:href="#DejaVuSans-31"/>
       <use xlink:href="#DejaVuSans-2e" x="63.623047"/>
       <use xlink:href="#DejaVuSans-30" x="95.410156"/>
      </g>
     </g>
    </g>
    <g id="text_26">
     <!-- True Positive Rate -->
     <g transform="translate(225.398437 140.427813) rotate(-90) scale(0.1 -0.1)">
      <defs>
       <path id="DejaVuSans-54" d="M -19 4666 
L 3928 4666 
L 3928 4134 
L 2272 4134 
L 2272 0 
L 1638 0 
L 1638 4134 
L -19 4134 
L -19 4666 
z
" transform="scale(0.015625)"/>
      </defs>
      <use xlink:href="#DejaVuSans-54"/>
      <use xlink:href="#DejaVuSans-72" x="46.333984"/>
      <use xlink:href="#DejaVuSans-75" x="87.447266"/>
      <use xlink:href="#DejaVuSans-65" x="150.826172"/>
      <use xlink:href="#DejaVuSans-20" x="212.349609"/>
      <use xlink:href="#DejaVuSans-50" x="244.136719"/>
      <use xlink:href="#DejaVuSans-6f" x="300.814453"/>
      <use xlink:href="#DejaVuSans-73" x="361.996094"/>
      <use xlink:href="#DejaVuSans-69" x="414.095703"/>
      <use xlink:href="#DejaVuSans-74" x="441.878906"/>
      <use xlink:href="#DejaVuSans-69" x="481.087891"/>
      <use xlink:href="#DejaVuSans-76" x="508.871094"/>
      <use xlink:href="#DejaVuSans-65" x="568.050781"/>
      <use xlink:href="#DejaVuSans-20" x="629.574219"/>
      <use xlink:href="#DejaVuSans-52" x="661.361328"/>
      <use xlink:href="#DejaVuSans-61" x="728.59375"/>
      <use xlink:href="#DejaVuSans-74" x="789.873047"/>
      <use xlink:href="#DejaVuSans-65" x="829.082031"/>
     </g>
    </g>
   </g>
   <g id="line2d_23">
    <path d="M 261.59613 162.789034 
L 261.59613 159.549303 
L 261.951543 159.549303 
L 261.951543 156.88129 
L 262.306955 156.88129 
L 262.306955 149.639539 
L 263.017781 149.639539 
L 263.017781 148.305532 
L 263.373194 148.305532 
L 263.373194 146.780953 
L 263.728607 146.780953 
L 263.728607 140.301492 
L 264.084019 140.301492 
L 264.084019 135.727755 
L 264.794845 135.727755 
L 264.794845 135.34661 
L 265.150258 135.34661 
L 265.150258 130.963445 
L 265.505671 130.963445 
L 265.505671 129.438866 
L 265.861083 129.438866 
L 265.861083 128.486004 
L 266.216496 128.486004 
L 266.216496 127.151997 
L 266.571909 127.151997 
L 266.571909 126.961425 
L 266.927322 126.961425 
L 266.927322 125.81799 
L 267.282735 125.81799 
L 267.282735 124.865128 
L 267.638147 124.865128 
L 267.638147 123.531122 
L 267.99356 123.531122 
L 267.99356 122.197115 
L 268.704386 122.197115 
L 268.704386 120.291391 
L 269.059799 120.291391 
L 269.059799 118.385667 
L 269.415211 118.385667 
L 269.415211 115.908226 
L 270.126037 115.908226 
L 270.126037 115.717654 
L 270.836863 115.717654 
L 270.836863 114.383647 
L 271.192275 114.383647 
L 271.192275 114.193074 
L 271.903101 114.193074 
L 271.903101 114.002502 
L 272.258514 114.002502 
L 272.258514 112.477923 
L 272.613927 112.477923 
L 272.613927 111.143916 
L 272.969339 111.143916 
L 272.969339 110.762771 
L 273.324752 110.762771 
L 273.324752 110.000482 
L 273.680165 110.000482 
L 273.680165 109.80991 
L 274.035578 109.80991 
L 274.035578 107.904186 
L 274.390991 107.904186 
L 274.390991 107.713613 
L 274.746403 107.713613 
L 274.746403 103.902165 
L 275.101816 103.902165 
L 275.101816 100.662435 
L 275.457229 100.662435 
L 275.457229 97.041559 
L 275.812642 97.041559 
L 275.812642 93.230112 
L 276.523467 93.230112 
L 276.523467 92.27725 
L 276.87888 92.27725 
L 276.87888 92.086677 
L 277.234293 92.086677 
L 277.234293 90.75267 
L 277.589706 90.75267 
L 277.589706 89.799809 
L 277.945118 89.799809 
L 277.945118 89.037519 
L 278.300531 89.037519 
L 278.300531 87.131795 
L 278.655944 87.131795 
L 278.655944 86.178933 
L 279.011357 86.178933 
L 279.011357 84.844926 
L 279.36677 84.844926 
L 279.36677 84.463782 
L 280.077595 84.463782 
L 280.077595 81.033479 
L 280.433008 81.033479 
L 280.433008 80.271189 
L 280.788421 80.271189 
L 280.788421 78.74661 
L 281.499246 78.74661 
L 281.499246 78.556037 
L 281.854659 78.556037 
L 281.854659 78.365465 
L 282.210072 78.365465 
L 282.210072 78.174893 
L 282.920898 78.174893 
L 282.920898 77.031458 
L 283.27631 77.031458 
L 283.27631 76.269169 
L 283.631723 76.269169 
L 283.631723 76.078596 
L 283.987136 76.078596 
L 283.987136 75.506879 
L 284.342549 75.506879 
L 284.342549 74.74459 
L 284.697962 74.74459 
L 284.697962 74.172872 
L 285.053374 74.172872 
L 285.053374 73.601155 
L 285.7642 73.601155 
L 285.7642 72.267149 
L 286.119613 72.267149 
L 286.119613 70.933142 
L 286.475026 70.933142 
L 286.475026 70.361425 
L 287.896677 70.361425 
L 287.896677 69.408563 
L 288.25209 69.408563 
L 288.25209 68.074556 
L 288.607502 68.074556 
L 288.607502 67.502839 
L 288.962915 67.502839 
L 288.962915 67.312266 
L 289.318328 67.312266 
L 289.318328 67.121694 
L 289.673741 67.121694 
L 289.673741 65.597115 
L 290.384566 65.597115 
L 290.384566 64.644253 
L 290.739979 64.644253 
L 290.739979 62.357384 
L 291.450805 62.357384 
L 291.450805 61.785667 
L 291.806218 61.785667 
L 291.806218 61.404522 
L 292.517043 61.404522 
L 292.517043 61.023378 
L 292.872456 61.023378 
L 292.872456 60.45166 
L 293.227869 60.45166 
L 293.227869 60.070516 
L 293.938694 60.070516 
L 293.938694 59.689371 
L 294.294107 59.689371 
L 294.294107 58.545936 
L 295.004933 58.545936 
L 295.004933 58.164792 
L 295.360346 58.164792 
L 295.360346 57.21193 
L 295.715758 57.21193 
L 295.715758 57.021357 
L 296.071171 57.021357 
L 296.071171 56.640213 
L 296.426584 56.640213 
L 296.426584 56.259068 
L 296.781997 56.259068 
L 296.781997 55.687351 
L 297.13741 55.687351 
L 297.13741 55.496778 
L 297.492822 55.496778 
L 297.492822 55.306206 
L 298.203648 55.306206 
L 298.203648 53.20991 
L 299.269886 53.20991 
L 299.269886 52.828765 
L 300.336125 52.828765 
L 300.336125 52.638192 
L 300.691538 52.638192 
L 300.691538 52.257048 
L 301.757776 52.257048 
L 301.757776 51.875903 
L 302.113189 51.875903 
L 302.113189 51.304186 
L 302.824014 51.304186 
L 302.824014 51.113613 
L 303.53484 51.113613 
L 303.53484 50.923041 
L 304.245665 50.923041 
L 304.245665 50.732468 
L 304.601078 50.732468 
L 304.601078 50.541896 
L 304.956491 50.541896 
L 304.956491 50.160751 
L 305.667317 50.160751 
L 305.667317 49.970179 
L 306.022729 49.970179 
L 306.022729 49.589034 
L 306.378142 49.589034 
L 306.378142 48.826745 
L 307.088968 48.826745 
L 307.088968 48.636172 
L 307.444381 48.636172 
L 307.444381 47.873883 
L 309.221445 47.873883 
L 309.221445 47.68331 
L 311.709334 47.68331 
L 311.709334 47.492738 
L 312.42016 47.492738 
L 312.42016 47.111593 
L 312.775573 47.111593 
L 312.775573 46.921021 
L 313.130985 46.921021 
L 313.130985 46.730448 
L 314.197224 46.730448 
L 314.197224 46.158731 
L 315.974288 46.158731 
L 315.974288 45.777586 
L 316.685113 45.777586 
L 316.685113 45.587014 
L 317.040526 45.587014 
L 317.040526 45.396441 
L 317.751352 45.396441 
L 317.751352 45.205869 
L 318.81759 45.205869 
L 318.81759 44.824724 
L 319.883829 44.824724 
L 319.883829 44.634152 
L 320.239241 44.634152 
L 320.239241 44.44358 
L 320.950067 44.44358 
L 320.950067 44.253007 
L 322.016305 44.253007 
L 322.016305 43.871862 
L 322.727131 43.871862 
L 322.727131 43.68129 
L 323.082544 43.68129 
L 323.082544 43.300145 
L 323.437957 43.300145 
L 323.437957 43.109573 
L 324.504195 43.109573 
L 324.504195 42.919 
L 325.215021 42.919 
L 325.215021 42.537856 
L 325.570433 42.537856 
L 325.570433 41.966138 
L 327.347497 41.966138 
L 327.347497 41.394421 
L 327.70291 41.394421 
L 327.70291 41.203849 
L 328.058323 41.203849 
L 328.058323 40.822704 
L 328.769149 40.822704 
L 328.769149 40.632132 
L 331.612451 40.632132 
L 331.612451 40.250987 
L 331.967864 40.250987 
L 331.967864 40.060415 
L 333.744928 40.060415 
L 333.744928 39.869842 
L 334.10034 39.869842 
L 334.10034 39.488697 
L 334.455753 39.488697 
L 334.455753 39.298125 
L 334.811166 39.298125 
L 334.811166 39.107553 
L 335.877404 39.107553 
L 335.877404 38.91698 
L 337.299056 38.91698 
L 337.299056 37.964118 
L 338.009881 37.964118 
L 338.009881 37.773546 
L 339.07612 37.773546 
L 339.07612 37.582973 
L 341.919422 37.582973 
L 341.919422 37.201829 
L 344.407312 37.201829 
L 344.407312 37.011256 
L 345.47355 37.011256 
L 345.47355 36.820684 
L 352.226393 36.820684 
L 352.226393 36.630112 
L 352.581806 36.630112 
L 352.581806 36.439539 
L 355.425108 36.439539 
L 355.425108 36.248967 
L 356.135934 36.248967 
L 356.135934 36.058394 
L 362.533364 36.058394 
L 362.533364 35.867822 
L 363.599603 35.867822 
L 363.599603 35.67725 
L 364.665841 35.67725 
L 364.665841 35.296105 
L 366.087492 35.296105 
L 366.087492 35.105532 
L 369.997033 35.105532 
L 369.997033 34.724388 
L 370.707859 34.724388 
L 370.707859 34.533815 
L 371.063271 34.533815 
L 371.063271 34.343243 
L 371.418684 34.343243 
L 371.418684 34.15267 
L 373.906574 34.15267 
L 373.906574 33.771526 
L 374.261987 33.771526 
L 374.261987 33.390381 
L 376.039051 33.390381 
L 376.039051 33.199809 
L 376.749876 33.199809 
L 376.749876 32.628091 
L 377.816115 32.628091 
L 377.816115 32.437519 
L 380.659417 32.437519 
L 380.659417 32.246947 
L 381.01483 32.246947 
L 381.01483 32.056374 
L 382.081068 32.056374 
L 382.081068 31.675229 
L 386.346022 31.675229 
L 386.346022 31.294085 
L 390.255562 31.294085 
L 390.255562 30.341223 
L 392.743452 30.341223 
L 392.743452 30.15065 
L 396.29758 30.15065 
L 396.29758 29.960078 
L 398.78547 29.960078 
L 398.78547 29.769505 
L 399.496295 29.769505 
L 399.496295 29.578933 
L 401.273359 29.578933 
L 401.628772 29.388361 
L 402.339598 29.388361 
L 402.339598 29.197788 
L 404.116662 29.197788 
L 404.116662 29.007216 
L 405.893726 29.007216 
L 405.893726 29.007216 
" clip-path="url(#p92891e8821)" style="fill: none; stroke: #1f77b4; stroke-width: 1.5; stroke-linecap: square"/>
   </g>
   <g id="line2d_24">
    <path d="M 261.59613 162.789034 
L 405.893726 29.007216 
" clip-path="url(#p92891e8821)" style="fill: none; stroke-dasharray: 5.55,2.4; stroke-dashoffset: 0; stroke: #000000; stroke-width: 1.5"/>
   </g>
   <g id="patch_9">
    <path d="M 254.38125 169.478125 
L 254.38125 22.318125 
" style="fill: none; stroke: #000000; stroke-width: 0.8; stroke-linejoin: miter; stroke-linecap: square"/>
   </g>
   <g id="patch_10">
    <path d="M 413.108605 169.478125 
L 413.108605 22.318125 
" style="fill: none; stroke: #000000; stroke-width: 0.8; stroke-linejoin: miter; stroke-linecap: square"/>
   </g>
   <g id="patch_11">
    <path d="M 254.38125 169.478125 
L 413.108605 169.478125 
" style="fill: none; stroke: #000000; stroke-width: 0.8; stroke-linejoin: miter; stroke-linecap: square"/>
   </g>
   <g id="patch_12">
    <path d="M 254.38125 22.318125 
L 413.108605 22.318125 
" style="fill: none; stroke: #000000; stroke-width: 0.8; stroke-linejoin: miter; stroke-linecap: square"/>
   </g>
   <g id="text_27">
    <!-- ROC Curve -->
    <g transform="translate(301.054303 16.318125) scale(0.12 -0.12)">
     <defs>
      <path id="DejaVuSans-4f" d="M 2522 4238 
Q 1834 4238 1429 3725 
Q 1025 3213 1025 2328 
Q 1025 1447 1429 934 
Q 1834 422 2522 422 
Q 3209 422 3611 934 
Q 4013 1447 4013 2328 
Q 4013 3213 3611 3725 
Q 3209 4238 2522 4238 
z
M 2522 4750 
Q 3503 4750 4090 4092 
Q 4678 3434 4678 2328 
Q 4678 1225 4090 567 
Q 3503 -91 2522 -91 
Q 1538 -91 948 565 
Q 359 1222 359 2328 
Q 359 3434 948 4092 
Q 1538 4750 2522 4750 
z
" transform="scale(0.015625)"/>
     </defs>
     <use xlink:href="#DejaVuSans-52"/>
     <use xlink:href="#DejaVuSans-4f" x="69.482422"/>
     <use xlink:href="#DejaVuSans-43" x="148.193359"/>
     <use xlink:href="#DejaVuSans-20" x="218.017578"/>
     <use xlink:href="#DejaVuSans-43" x="249.804688"/>
     <use xlink:href="#DejaVuSans-75" x="319.628906"/>
     <use xlink:href="#DejaVuSans-72" x="383.007812"/>
     <use xlink:href="#DejaVuSans-76" x="424.121094"/>
     <use xlink:href="#DejaVuSans-65" x="483.300781"/>
    </g>
   </g>
   <g id="legend_2">
    <g id="patch_13">
     <path d="M 302.838293 164.478125 
L 406.108605 164.478125 
Q 408.108605 164.478125 408.108605 162.478125 
L 408.108605 148.8 
Q 408.108605 146.8 406.108605 146.8 
L 302.838293 146.8 
Q 300.838293 146.8 300.838293 148.8 
L 300.838293 162.478125 
Q 300.838293 164.478125 302.838293 164.478125 
z
" style="fill: #ffffff; opacity: 0.8; stroke: #cccccc; stroke-linejoin: miter"/>
    </g>
    <g id="line2d_25">
     <path d="M 304.838293 154.898438 
L 314.838293 154.898438 
L 324.838293 154.898438 
" style="fill: none; stroke: #1f77b4; stroke-width: 1.5; stroke-linecap: square"/>
    </g>
    <g id="text_28">
     <!-- auROC = 0.77 -->
     <g transform="translate(332.838293 158.398438) scale(0.1 -0.1)">
      <use xlink:href="#DejaVuSans-61"/>
      <use xlink:href="#DejaVuSans-75" x="61.279297"/>
      <use xlink:href="#DejaVuSans-52" x="124.658203"/>
      <use xlink:href="#DejaVuSans-4f" x="194.140625"/>
      <use xlink:href="#DejaVuSans-43" x="272.851562"/>
      <use xlink:href="#DejaVuSans-20" x="342.675781"/>
      <use xlink:href="#DejaVuSans-3d" x="374.462891"/>
      <use xlink:href="#DejaVuSans-20" x="458.251953"/>
      <use xlink:href="#DejaVuSans-30" x="490.039062"/>
      <use xlink:href="#DejaVuSans-2e" x="553.662109"/>
      <use xlink:href="#DejaVuSans-37" x="585.449219"/>
      <use xlink:href="#DejaVuSans-37" x="649.072266"/>
     </g>
    </g>
   </g>
  </g>
 </g>
 <defs>
  <clipPath id="p757efcc464">
   <rect x="43.78125" y="22.318125" width="158.727355" height="147.16"/>
  </clipPath>
  <clipPath id="p92891e8821">
   <rect x="254.38125" y="22.318125" width="158.727355" height="147.16"/>
  </clipPath>
 </defs>
</svg>
